# xmcd CD database file
#
# Track frame offsets:
#	150
#	11998
#	23618
#	33760
#	44153
#	55950
#	67035
#	76825
#	84253
#	98835
#	112418
#	122868
#	133328
#	142975
#	152568
#	161990
#	170620
#
# Disc length: 2423 seconds
#
# Revision: 3
# Processed by: cddbd v1.5.2PL0 Copyright (c) Steve Scherf et al.
# Submitted via: CDex 1.51
#
DISCID=ed097511
DTITLE=Come and Dance - Come and Dance Vol.26
DYEAR=2000
DGENRE=Dance
TTITLE0=アウト・アブ・アフリカ W-28
TTITLE1=遥かなるアラモ W-29
TTITLE2=わが悲しみの夜 T-32
TTITLE3=さよならも言わないで T-32
TTITLE4=武器よさらば F-28
TTITLE5=ジャージー・バウンス F-30
TTITLE6=ストライク・アップ・ザ・バンド Q-50
TTITLE7=皇帝円舞曲 V-60
TTITLE8=抱きしめて R-24
TTITLE9=カサブランカ R-25
TTITLE10=マクンバ C-31
TTITLE11=フレネシー C-31
TTITLE12=遥かなる情熱 S-50
TTITLE13=トレロ S-50
TTITLE14=ビバ・パソ・ドブレ P-62
TTITLE15=リーリン&ロッキン J-40
TTITLE16=セントバーナード・ワルツ (SD)
EXTD=YEAR: 2000
EXTT0=
EXTT1=
EXTT2=
EXTT3=
EXTT4=
EXTT5=
EXTT6=
EXTT7=
EXTT8=
EXTT9=
EXTT10=
EXTT11=
EXTT12=
EXTT13=
EXTT14=
EXTT15=
EXTT16=
PLAYORDER=
